<?xml version="1.0" standalone="no"?>
<!DOCTYPE svg PUBLIC "-//W3C//DTD SVG 20010904//EN" "http://www.w3.org/TR/2001/REC-SVG-20010904/DTD/svg10.dtd">
<!-- Created using Krita: https://krita.org -->
<svg xmlns="http://www.w3.org/2000/svg" 
    xmlns:xlink="http://www.w3.org/1999/xlink"
    xmlns:krita="http://krita.org/namespaces/svg/krita"
    xmlns:sodipodi="http://sodipodi.sourceforge.net/DTD/sodipodi-0.dtd"
    width="184.32pt"
    height="184.32pt"
    viewBox="0 0 184.32 184.32">
<defs/>
<rect id="shape0" transform="matrix(0.99999988079072 0 0 0.99999988079072 53.9999935626989 43.1999948501591)" fill="none" stroke="#f2f2f2" stroke-width="7.4592" stroke-linecap="square" stroke-linejoin="bevel" width="79.92" height="105.12"/><rect id="shape1" transform="matrix(0.99999988079072 0 0 0.99999988079072 57.5999931335454 47.519994335175)" fill="none" stroke="#f2f2f2" stroke-width="7.4592" stroke-linecap="square" stroke-linejoin="bevel" width="80.64" height="96.48"/><rect id="shape2" transform="matrix(0.99999988079072 0 0 0.99999988079072 60.4799927902227 48.9599941635137)" fill="none" stroke="#f2f2f2" stroke-width="7.4592" stroke-linecap="square" stroke-linejoin="bevel" width="69.12" height="89.28"/><rect id="shape3" transform="matrix(0.99999988079072 0 0 0.99999988079072 61.9199926185615 51.1199939060217)" fill="none" stroke="#f2f2f2" stroke-width="7.4592" stroke-linecap="square" stroke-linejoin="bevel" width="73.44" height="81.36"/><rect id="shape4" transform="matrix(0.99999988079072 0 0 0.99999988079072 66.2399921035773 56.1599933052069)" fill="none" stroke="#f2f2f2" stroke-width="7.4592" stroke-linecap="square" stroke-linejoin="bevel" width="65.52" height="70.56"/><rect id="shape5" transform="matrix(0.99999988079072 0 0 0.99999988079072 66.9599920177467 57.5999931335454)" fill="none" stroke="#f2f2f2" stroke-width="7.4592" stroke-linecap="square" stroke-linejoin="bevel" width="57.6" height="61.92"/><rect id="shape6" transform="matrix(0.99999988079072 0 0 0.99999988079072 71.9999914169319 59.7599928760533)" fill="none" stroke="#f2f2f2" stroke-width="7.4592" stroke-linecap="square" stroke-linejoin="bevel" width="52.56" height="58.32"/><rect id="shape7" transform="matrix(0.99999988079072 0 0 0.99999988079072 78.4799906444557 64.7999922752387)" fill="none" stroke="#f2f2f2" stroke-width="7.4592" stroke-linecap="square" stroke-linejoin="bevel" width="38.88" height="45.36"/><rect id="shape8" transform="matrix(0.99999988079072 0 0 0.99999988079072 74.1599911594398 64.0799923610694)" fill="none" stroke="#f2f2f2" stroke-width="7.4592" stroke-linecap="square" stroke-linejoin="bevel" width="52.56" height="48.96"/><rect id="shape9" transform="matrix(0.99999988079072 0 0 0.99999988079072 82.7999901294716 67.6799919319159)" fill="none" stroke="#f2f2f2" stroke-width="7.4592" stroke-linecap="square" stroke-linejoin="bevel" width="25.2" height="36"/><rect id="shape10" transform="matrix(0.99999988079072 0 0 0.99999988079072 75.5999909877784 63.3599924469)" fill="none" stroke="#f2f2f2" stroke-width="7.4592" stroke-linecap="square" stroke-linejoin="bevel" width="37.44" height="41.76"/><rect id="shape11" transform="matrix(0.99999988079072 0 0 0.99999988079072 86.3999897003182 69.839991674424)" fill="none" stroke="#f2f2f2" stroke-width="7.4592" stroke-linecap="square" stroke-linejoin="bevel" width="16.56" height="28.08"/><rect id="shape12" transform="matrix(0.99999988079072 0 0 0.99999988079072 91.4399890995035 74.1599911594398)" fill="none" stroke="#f2f2f2" stroke-width="7.4592" stroke-linecap="square" stroke-linejoin="bevel" width="5.76000000000001" height="19.44"/><rect id="shape13" transform="matrix(0.99999988079072 0 0 0.99999988079072 87.8399895286569 79.199990558625)" fill="none" stroke="#f2f2f2" stroke-width="7.4592" stroke-linecap="square" stroke-linejoin="bevel" width="9.36" height="14.4"/><rect id="shape14" transform="matrix(0.99999988079072 0 0 0.99999988079072 91.4399890995035 64.7999922752387)" fill="none" stroke="#f2f2f2" stroke-width="7.4592" stroke-linecap="square" stroke-linejoin="bevel" width="12.24" height="24.48"/><rect id="shape15" transform="matrix(0.99999988079072 0 0 0.99999988079072 100.079988069535 64.0799923610694)" fill="none" stroke="#f2f2f2" stroke-width="7.4592" stroke-linecap="square" stroke-linejoin="bevel" width="5.04000000000001" height="20.88"/><rect id="shape16" transform="matrix(0.99999988079072 0 0 0.99999988079072 107.279987211228 63.3599924469)" fill="none" stroke="#f2f2f2" stroke-width="7.4592" stroke-linecap="square" stroke-linejoin="bevel" width="13.68" height="33.84"/><rect id="shape17" transform="matrix(0.99999988079072 0 0 0.99999988079072 115.91998618126 56.8799932193762)" fill="none" stroke="#f2f2f2" stroke-width="7.4592" stroke-linecap="square" stroke-linejoin="bevel" width="12.24" height="41.76"/><rect id="shape18" transform="matrix(0.99999988079072 0 0 0.99999988079072 118.079985923769 77.7599907302864)" fill="none" stroke="#f2f2f2" stroke-width="7.4592" stroke-linecap="square" stroke-linejoin="bevel" width="0.720000000000013" height="7.92"/><rect id="shape19" transform="matrix(0.99999988079072 0 0 0.99999988079072 107.279987211228 84.9599898719795)" fill="none" stroke="#f2f2f2" stroke-width="7.4592" stroke-linecap="square" stroke-linejoin="bevel" width="17.28" height="20.88"/><rect id="shape20" transform="matrix(0.99999988079072 0 0 0.99999988079072 117.359986009599 93.5999888420114)" fill="none" stroke="#f2f2f2" stroke-width="7.4592" stroke-linecap="square" stroke-linejoin="bevel" width="6.48" height="7.92"/><rect id="shape21" transform="matrix(0.99999988079072 0 0 0.99999988079072 120.239985666276 93.5999888420114)" fill="none" stroke="#f2f2f2" stroke-width="7.4592" stroke-linecap="square" stroke-linejoin="bevel" width="1.44" height="5.04000000000001"/><rect id="shape22" transform="matrix(0.99999988079072 0 0 0.99999988079072 43.1999948501591 33.1199960517886)" fill="none" stroke="#f2f2f2" stroke-width="9.612" stroke-linecap="square" stroke-linejoin="bevel" width="105.12" height="120.96"/><rect id="shape23" transform="matrix(0.99999988079072 0 0 0.99999988079072 48.2399942493444 32.3999961376193)" fill="none" stroke="#f2f2f2" stroke-width="9.612" stroke-linecap="square" stroke-linejoin="bevel" width="86.4" height="115.92"/><rect id="shape24" transform="matrix(0.99999988079072 0 0 0.99999988079072 59.7599928760533 37.4399955368045)" fill="none" stroke="#f2f2f2" stroke-width="9.612" stroke-linecap="square" stroke-linejoin="bevel" width="81.36" height="23.04"/><rect id="shape25" transform="matrix(0.99999988079072 0 0 0.99999988079072 128.879984636308 33.839995965958)" fill="none" stroke="#f2f2f2" stroke-width="9.612" stroke-linecap="square" stroke-linejoin="bevel" width="29.52" height="107.28"/><rect id="shape26" transform="matrix(0.99999988079072 0 0 0.99999988079072 149.039982233049 14.3999982833864)" fill="none" stroke="#f2f2f2" stroke-width="9.612" stroke-linecap="square" stroke-linejoin="bevel" width="13.68" height="91.44"/><rect id="shape27" transform="matrix(0.99999988079072 0 0 0.99999988079072 154.079981632234 12.9599984550477)" fill="none" stroke="#f2f2f2" stroke-width="9.612" stroke-linecap="square" stroke-linejoin="bevel" width="4.31999999999999" height="25.2"/><rect id="shape28" transform="matrix(0.99999988079072 0 0 0.99999988079072 153.359981718065 15.1199981975557)" fill="none" stroke="#f2f2f2" stroke-width="9.612" stroke-linecap="square" stroke-linejoin="bevel" width="6.47999999999999" height="15.84"/><rect id="shape29" transform="matrix(0.99999988079072 0 0 0.99999988079072 149.039982233049 22.3199973392489)" fill="none" stroke="#f2f2f2" stroke-width="9.612" stroke-linecap="square" stroke-linejoin="bevel" width="5.75999999999999" height="109.44"/><rect id="shape30" transform="matrix(0.99999988079072 0 0 0.99999988079072 154.799981546403 18.7199977684023)" fill="none" stroke="#f2f2f2" stroke-width="9.612" stroke-linecap="square" stroke-linejoin="bevel" width="9.35999999999999" height="111.6"/><rect id="shape31" transform="matrix(0.99999988079072 0 0 0.99999988079072 116.639986095429 18.7199977684023)" fill="none" stroke="#f2f2f2" stroke-width="9.612" stroke-linecap="square" stroke-linejoin="bevel" width="47.52" height="149.04"/><rect id="shape32" transform="matrix(0.99999988079072 0 0 0.99999988079072 107.279987211228 155.519981460573)" fill="none" stroke="#f2f2f2" stroke-width="9.612" stroke-linecap="square" stroke-linejoin="bevel" width="44.64" height="5.75999999999999"/><rect id="shape33" transform="matrix(0.99999988079072 0 0 0.99999988079072 136.079983778001 51.8399938201909)" fill="none" stroke="#f2f2f2" stroke-width="9.612" stroke-linecap="square" stroke-linejoin="bevel" width="16.56" height="82.8"/><rect id="shape34" transform="matrix(0.99999988079072 0 0 0.99999988079072 157.67998120308 57.5999931335454)" fill="none" stroke="#f2f2f2" stroke-width="9.612" stroke-linecap="square" stroke-linejoin="bevel" width="1.44" height="57.6"/><rect id="shape35" transform="matrix(0.99999988079072 0 0 0.99999988079072 127.43998480797 52.5599937343602)" fill="none" stroke="#f2f2f2" stroke-width="9.612" stroke-linecap="square" stroke-linejoin="bevel" width="18.72" height="66.24"/><rect id="shape36" transform="matrix(0.99999988079072 0 0 0.99999988079072 23.0399972534182 134.639983949662)" fill="none" stroke="#f2f2f2" stroke-width="9.612" stroke-linecap="square" stroke-linejoin="bevel" width="95.04" height="33.84"/><rect id="shape37" transform="matrix(0.99999988079072 0 0 0.99999988079072 26.6399968242648 124.559985151293)" fill="none" stroke="#f2f2f2" stroke-width="9.612" stroke-linecap="square" stroke-linejoin="bevel" width="102.96" height="40.32"/><rect id="shape38" transform="matrix(0.99999988079072 0 0 0.99999988079072 26.6399968242648 139.679983348848)" fill="none" stroke="#f2f2f2" stroke-width="9.612" stroke-linecap="square" stroke-linejoin="bevel" width="27.36" height="20.88"/><rect id="shape39" transform="matrix(0.99999988079072 0 0 0.99999988079072 37.4399955368045 145.439982662202)" fill="none" stroke="#f2f2f2" stroke-width="9.612" stroke-linecap="square" stroke-linejoin="bevel" width="17.28" height="13.68"/><rect id="shape40" transform="matrix(0.99999988079072 0 0 0.99999988079072 33.1199960517886 143.999982833864)" fill="none" stroke="#f2f2f2" stroke-width="9.612" stroke-linecap="square" stroke-linejoin="bevel" width="7.92" height="15.84"/><rect id="shape41" transform="matrix(0.99999988079072 0 0 0.99999988079072 23.7599971675875 146.879982490541)" fill="none" stroke="#f2f2f2" stroke-width="9.612" stroke-linecap="square" stroke-linejoin="bevel" width="95.76" height="5.76000000000002"/><rect id="shape42" transform="matrix(0.99999988079072 0 0 0.99999988079072 103.679987640381 138.959983434678)" fill="none" stroke="#f2f2f2" stroke-width="9.612" stroke-linecap="square" stroke-linejoin="bevel" width="38.16" height="28.8"/><rect id="shape43" transform="matrix(0.99999988079072 0 0 0.99999988079072 41.7599950218205 151.199981975557)" fill="none" stroke="#f2f2f2" stroke-width="9.612" stroke-linecap="square" stroke-linejoin="bevel" width="66.24" height="8.63999999999999"/><rect id="shape44" transform="matrix(0.99999988079072 0 0 0.99999988079072 54.7199934768681 151.919981889726)" fill="none" stroke="#f2f2f2" stroke-width="9.612" stroke-linecap="square" stroke-linejoin="bevel" width="21.6" height="5.75999999999999"/><rect id="shape45" transform="matrix(0.99999988079072 0 0 0.99999988079072 61.1999927043921 155.519981460573)" fill="none" stroke="#f2f2f2" stroke-width="9.612" stroke-linecap="square" stroke-linejoin="bevel" width="14.4" height="2.16"/><rect id="shape46" transform="matrix(0.99999988079072 0 0 0.99999988079072 20.1599975967409 167.039980087282)" fill="none" stroke="#f2f2f2" stroke-width="2.0232" stroke-linecap="square" stroke-linejoin="bevel" width="15.84" height="5.76000000000002"/><rect id="shape47" transform="matrix(0.99999988079072 0 0 0.99999988079072 19.4399976825716 9.35999888420114)" fill="none" stroke="#f2f2f2" stroke-width="2.0232" stroke-linecap="square" stroke-linejoin="bevel" width="148.32" height="164.16"/><rect id="shape48" transform="matrix(0.99999988079072 0 0 0.99999988079072 19.4399976825716 10.0799987983704)" fill="none" stroke="#f2f2f2" stroke-width="2.0232" stroke-linecap="square" stroke-linejoin="bevel" width="145.44" height="142.56"/><rect id="shape49" transform="matrix(0.99999988079072 0 0 0.99999988079072 162.719980602266 10.7999987125398)" fill="none" stroke="#f2f2f2" stroke-width="2.0232" stroke-linecap="square" stroke-linejoin="bevel" width="3.59999999999999" height="13.68"/><rect id="shape50" transform="matrix(0.99999988079072 0 0 0.99999988079072 19.4399976825716 10.0799987983704)" fill="none" stroke="#f2f2f2" stroke-width="2.0232" stroke-linecap="square" stroke-linejoin="bevel" width="20.16" height="121.68"/><rect id="shape51" transform="matrix(0.99999988079072 0 0 0.99999988079072 20.1599975967409 130.319984464647)" fill="none" stroke="#f2f2f2" stroke-width="2.0232" stroke-linecap="square" stroke-linejoin="bevel" width="18.72" height="2.88"/><rect id="shape52" transform="matrix(0.99999988079072 0 0 0.99999988079072 20.1599975967409 127.43998480797)" fill="none" stroke="#f2f2f2" stroke-width="2.0232" stroke-linecap="square" stroke-linejoin="bevel" width="22.32" height="25.92"/><rect id="shape53" transform="matrix(0.99999988079072 0 0 0.99999988079072 19.4399976825716 128.879984636308)" fill="none" stroke="#f2f2f2" stroke-width="2.0232" stroke-linecap="square" stroke-linejoin="bevel" width="16.56" height="12.24"/><rect id="shape54" transform="matrix(0.99999988079072 0 0 0.99999988079072 28.0799966526034 128.879984636308)" fill="none" stroke="#f2f2f2" stroke-width="2.0232" stroke-linecap="square" stroke-linejoin="bevel" width="13.68" height="6.48000000000002"/><rect id="shape55" transform="matrix(0.99999988079072 0 0 0.99999988079072 33.839995965958 113.039986524583)" fill="none" stroke="#f2f2f2" stroke-width="2.0232" stroke-linecap="square" stroke-linejoin="bevel" width="5.76" height="20.16"/><rect id="shape56" transform="matrix(0.99999988079072 0 0 0.99999988079072 20.8799975109102 11.5199986267091)" fill="none" stroke="#f2f2f2" stroke-width="3.4632" stroke-linecap="square" stroke-linejoin="bevel" width="19.44" height="116.64"/><rect id="shape57" transform="matrix(0.99999988079072 0 0 0.99999988079072 23.7599971675875 13.6799983692171)" fill="none" stroke="#f2f2f2" stroke-width="3.4632" stroke-linecap="square" stroke-linejoin="bevel" width="12.96" height="109.44"/><rect id="shape58" transform="matrix(0.99999988079072 0 0 0.99999988079072 25.1999969959261 15.839998111725)" fill="none" stroke="#f2f2f2" stroke-width="3.4632" stroke-linecap="square" stroke-linejoin="bevel" width="13.68" height="108"/><rect id="shape59" transform="matrix(0.99999988079072 0 0 0.99999988079072 25.9199969100955 16.5599980258943)" fill="none" stroke="#f2f2f2" stroke-width="3.4632" stroke-linecap="square" stroke-linejoin="bevel" width="9.36" height="105.84"/><rect id="shape60" transform="matrix(0.99999988079072 0 0 0.99999988079072 28.7999965667728 19.4399976825716)" fill="none" stroke="#f2f2f2" stroke-width="3.4632" stroke-linecap="square" stroke-linejoin="bevel" width="2.16" height="101.52"/><rect id="shape61" transform="matrix(0.99999988079072 0 0 0.99999988079072 27.3599967384341 18.7199977684023)" fill="none" stroke="#f2f2f2" stroke-width="3.4632" stroke-linecap="square" stroke-linejoin="bevel" width="9.36" height="1.44"/><rect id="shape62" transform="matrix(0.99999988079072 0 0 0.99999988079072 28.7999965667728 19.4399976825716)" fill="none" stroke="#f2f2f2" stroke-width="3.4632" stroke-linecap="square" stroke-linejoin="bevel" width="4.32" height="101.52"/><rect id="shape63" transform="matrix(0.99999988079072 0 0 0.99999988079072 30.2399963951114 27.3599967384341)" fill="none" stroke="#f2f2f2" stroke-width="3.4632" stroke-linecap="square" stroke-linejoin="bevel" width="25.92" height="20.88"/><rect id="shape64" transform="matrix(0.99999988079072 0 0 0.99999988079072 25.9199969100955 167.759980001451)" fill="none" stroke="#f2f2f2" stroke-width="3.4632" stroke-linecap="square" stroke-linejoin="bevel" width="28.08" height="5.04000000000002"/><rect id="shape65" transform="matrix(0.99999988079072 0 0 0.99999988079072 36.7199956226353 11.5199986267091)" fill="none" stroke="#f2f2f2" stroke-width="3.4632" stroke-linecap="square" stroke-linejoin="bevel" width="2.16" height="2.88"/><rect id="shape66" transform="matrix(0.99999988079072 0 0 0.99999988079072 39.5999952793125 15.1199981975557)" fill="none" stroke="#f2f2f2" stroke-width="3.4632" stroke-linecap="square" stroke-linejoin="bevel" width="79.92" height="25.2"/><rect id="shape67" transform="matrix(0.99999988079072 0 0 0.99999988079072 33.839995965958 10.0799987983704)" fill="none" stroke="#f2f2f2" stroke-width="3.4632" stroke-linecap="square" stroke-linejoin="bevel" width="117.36" height="18.72"/><rect id="shape68" transform="matrix(0.99999988079072 0 0 0.99999988079072 31.6799962234501 12.2399985408784)" fill="none" stroke="#f2f2f2" stroke-width="3.4632" stroke-linecap="square" stroke-linejoin="bevel" width="116.64" height="2.16"/><rect id="shape69" transform="matrix(0.99999988079072 0 0 0.99999988079072 38.1599954509739 14.3999982833864)" fill="none" stroke="#f2f2f2" stroke-width="3.4632" stroke-linecap="square" stroke-linejoin="bevel" width="76.32" height="4.32"/><rect id="shape70" transform="matrix(0.99999988079072 0 0 0.99999988079072 41.0399951076511 13.6799983692171)" fill="none" stroke="#f2f2f2" stroke-width="3.4632" stroke-linecap="square" stroke-linejoin="bevel" width="81.36" height="2.88"/><rect id="shape71" transform="matrix(0.99999988079072 0 0 0.99999988079072 36.7199956226353 21.5999974250796)" fill="none" stroke="#f2f2f2" stroke-width="3.4632" stroke-linecap="square" stroke-linejoin="bevel" width="106.56" height="4.32"/><rect id="shape72" transform="matrix(0.99999988079072 0 0 0.99999988079072 35.2799957942966 24.4799970817568)" fill="none" stroke="#f2f2f2" stroke-width="3.4632" stroke-linecap="square" stroke-linejoin="bevel" width="110.16" height="0.720000000000002"/><rect id="shape73" transform="matrix(0.99999988079072 0 0 0.99999988079072 38.1599954509739 22.3199973392489)" fill="none" stroke="#f2f2f2" stroke-width="3.4632" stroke-linecap="square" stroke-linejoin="bevel" width="104.4" height="1.44"/><rect id="shape74" transform="matrix(0.99999988079072 0 0 0.99999988079072 43.9199947643284 15.839998111725)" fill="none" stroke="#f2f2f2" stroke-width="3.4632" stroke-linecap="square" stroke-linejoin="bevel" width="76.32" height="1.44"/><rect id="shape75" transform="matrix(0.99999988079072 0 0 0.99999988079072 79.199990558625 11.5199986267091)" fill="none" stroke="#f2f2f2" stroke-width="3.4632" stroke-linecap="square" stroke-linejoin="bevel" width="33.84" height="5.04"/><rect id="shape76" transform="matrix(0.99999988079072 0 0 0.99999988079072 44.6399946784977 28.0799966526034)" fill="none" stroke="#f2f2f2" stroke-width="17.2872" stroke-linecap="square" stroke-linejoin="bevel" width="89.28" height="75.6"/><rect id="shape77" transform="matrix(0.99999988079072 0 0 0.99999988079072 35.2799957942966 26.6399968242648)" fill="none" stroke="#f2f2f2" stroke-width="17.2872" stroke-linecap="square" stroke-linejoin="bevel" width="25.2" height="25.92"/><rect id="shape78" transform="matrix(0.99999988079072 0 0 0.99999988079072 41.7599950218205 21.5999974250796)" fill="none" stroke="#f2f2f2" stroke-width="17.2872" stroke-linecap="square" stroke-linejoin="bevel" width="41.04" height="26.64"/><rect id="shape79" transform="matrix(0.99999988079072 0 0 0.99999988079072 51.8399938201909 33.839995965958)" fill="none" stroke="#f2f2f2" stroke-width="17.2872" stroke-linecap="square" stroke-linejoin="bevel" width="44.64" height="28.08"/><rect id="shape80" transform="matrix(0.99999988079072 0 0 0.99999988079072 71.2799915027625 26.6399968242648)" fill="none" stroke="#f2f2f2" stroke-width="17.2872" stroke-linecap="square" stroke-linejoin="bevel" width="3.60000000000001" height="28.08"/><rect id="shape81" transform="matrix(0.99999988079072 0 0 0.99999988079072 59.7599928760533 30.9599963092807)" fill="none" stroke="#f2f2f2" stroke-width="17.2872" stroke-linecap="square" stroke-linejoin="bevel" width="12.24" height="5.04"/><rect id="shape82" transform="matrix(0.99999988079072 0 0 0.99999988079072 110.879986782075 112.319986610414)" fill="none" stroke="#f2f2f2" stroke-width="17.2872" stroke-linecap="square" stroke-linejoin="bevel" width="43.2" height="51.84"/><rect id="shape83" transform="matrix(0.99999988079072 0 0 0.99999988079072 146.159982576372 75.5999909877784)" fill="none" stroke="#f2f2f2" stroke-width="17.2872" stroke-linecap="square" stroke-linejoin="bevel" width="11.52" height="55.44"/><path id="shape0" transform="matrix(0.815515960113682 0 0 1 25.381211095199 164.583050847457)" fill="none" stroke="#000000" stroke-width="3.7368" stroke-linecap="square" stroke-linejoin="miter" stroke-miterlimit="2" d="M0 0.208271L99.9702 0"/><path id="shape1" transform="matrix(0.317912990583204 0 0 1 24.2943700902843 150.903050847457)" fill="none" stroke="#000000" stroke-width="3.7368" stroke-linecap="square" stroke-linejoin="miter" stroke-miterlimit="2" d="M0 0.208271L99.9702 0"/><path id="shape2" transform="translate(26.1000006151177, 135.360000682466)" fill="none" stroke="#000000" stroke-width="3.7368" stroke-linecap="square" stroke-linejoin="miter" stroke-miterlimit="2" d="M0 0L133.92 0"/><path id="shape3" transform="translate(26.1000006151177, 119.520000682466)" fill="none" stroke="#000000" stroke-width="3.7368" stroke-linecap="square" stroke-linejoin="miter" stroke-miterlimit="2" d="M0 0L133.92 0"/><path id="shape4" transform="matrix(0.815515960113682 0 0 1 25.381211095199 103.383050847458)" fill="none" stroke="#000000" stroke-width="3.7368" stroke-linecap="square" stroke-linejoin="miter" stroke-miterlimit="2" d="M0 0.208271L99.9702 0"/><path id="shape5" transform="translate(26.1000006151177, 87.8400006824663)" fill="none" stroke="#000000" stroke-width="3.7368" stroke-linecap="square" stroke-linejoin="miter" stroke-miterlimit="2" d="M0 0L133.92 0"/><path id="shape6" transform="matrix(0.317912990583204 0 0 1 24.2943700902843 72.4230508474575)" fill="none" stroke="#000000" stroke-width="3.7368" stroke-linecap="square" stroke-linejoin="miter" stroke-miterlimit="2" d="M0 0.208271L99.9702 0"/><path id="shape7" transform="matrix(0.815515960113682 0 0 1 25.381211095199 57.3030508474576)" fill="none" stroke="#000000" stroke-width="3.7368" stroke-linecap="square" stroke-linejoin="miter" stroke-miterlimit="2" d="M0 0.208271L99.9702 0"/><path id="shape8" transform="translate(26.1000006151177, 43.9200006824664)" fill="none" stroke="#000000" stroke-width="3.7368" stroke-linecap="square" stroke-linejoin="miter" stroke-miterlimit="2" d="M0 0L133.92 0"/><path id="shape9" transform="translate(26.1000006151177, 30.2400006824664)" fill="none" stroke="#000000" stroke-width="3.7368" stroke-linecap="square" stroke-linejoin="miter" stroke-miterlimit="2" d="M0 0L133.92 0"/><path id="shape10" transform="translate(25.8256271186441, 16.9830508474576)" fill="none" stroke="#000000" stroke-width="3.7368" stroke-linecap="square" stroke-linejoin="miter" stroke-miterlimit="2" d="M0 0.208271L99.9702 0"/><rect id="shape01" transform="matrix(0.99999988079072 0 0 0.99999988079072 17.9999978542329 7.9199990558625)" fill="none" stroke="#000000" stroke-width="1.908" stroke-linecap="square" stroke-linejoin="bevel" width="150.48" height="166.32"/><rect id="shape02" transform="matrix(0.99999988079072 0 0 0.99999988079072 156.959981288911 79.199990558625)" fill="none" stroke="#ffffff" stroke-width="3.7368" stroke-linecap="square" stroke-linejoin="bevel" width="7.19999999999999" height="22.32"/><rect id="shape11" transform="matrix(0.99999988079072 0 0 0.99999988079072 158.39998111725 77.0399908161171)" fill="none" stroke="#ffffff" stroke-width="3.7368" stroke-linecap="square" stroke-linejoin="bevel" width="10.08" height="36"/><rect id="shape21" transform="matrix(0.99999988079072 0 0 0.99999988079072 157.67998120308 80.6399903869637)" fill="none" stroke="#ffffff" stroke-width="3.7368" stroke-linecap="square" stroke-linejoin="bevel" width="13.68" height="22.32"/><rect id="shape31" transform="matrix(0.99999988079072 0 0 0.99999988079072 170.639979658128 76.3199909019477)" fill="none" stroke="#ffffff" stroke-width="3.7368" stroke-linecap="square" stroke-linejoin="bevel" width="2.88" height="7.92"/><rect id="shape41" transform="matrix(0.99999988079072 0 0 0.99999988079072 169.919979743959 77.0399908161171)" fill="none" stroke="#ffffff" stroke-width="3.7368" stroke-linecap="square" stroke-linejoin="bevel" width="2.16" height="6.47999999999999"/><rect id="shape51" transform="matrix(0.99999988079072 0 0 0.99999988079072 171.359979572298 77.0399908161171)" fill="none" stroke="#ffffff" stroke-width="3.7368" stroke-linecap="square" stroke-linejoin="bevel" width="2.88" height="7.2"/><rect id="shape61" transform="matrix(0.99999988079072 0 0 0.99999988079072 172.079979486467 77.0399908161171)" fill="none" stroke="#ffffff" stroke-width="3.7368" stroke-linecap="square" stroke-linejoin="bevel" width="1.44" height="4.31999999999999"/><rect id="shape71" transform="matrix(0.99999988079072 0 0 0.99999988079072 126.7199848938 76.3199909019477)" fill="none" stroke="#ffffff" stroke-width="3.7368" stroke-linecap="square" stroke-linejoin="bevel" width="10.08" height="11.52"/><rect id="shape81" transform="matrix(0.99999988079072 0 0 0.99999988079072 130.319984464647 77.0399908161171)" fill="none" stroke="#ffffff" stroke-width="3.7368" stroke-linecap="square" stroke-linejoin="bevel" width="5.76000000000002" height="7.92"/><rect id="shape91" transform="matrix(0.99999988079072 0 0 0.99999988079072 133.919984035494 79.199990558625)" fill="none" stroke="#ffffff" stroke-width="3.7368" stroke-linecap="square" stroke-linejoin="bevel" width="18.72" height="6.48"/><rect id="shape101" transform="matrix(0.99999988079072 0 0 0.99999988079072 124.559985151293 88.5599894428262)" fill="none" stroke="#ffffff" stroke-width="3.7368" stroke-linecap="square" stroke-linejoin="bevel" width="9.36000000000001" height="8.64"/><rect id="shape111" transform="matrix(0.99999988079072 0 0 0.99999988079072 128.879984636308 89.9999892711648)" fill="none" stroke="#ffffff" stroke-width="3.7368" stroke-linecap="square" stroke-linejoin="bevel" width="18" height="8.64"/><rect id="shape121" transform="matrix(0.99999988079072 0 0 0.99999988079072 146.879982490541 89.9999892711648)" fill="none" stroke="#ffffff" stroke-width="3.7368" stroke-linecap="square" stroke-linejoin="bevel" width="19.44" height="15.12"/><rect id="shape131" transform="matrix(0.99999988079072 0 0 0.99999988079072 149.759982147219 93.5999888420114)" fill="none" stroke="#ffffff" stroke-width="3.7368" stroke-linecap="square" stroke-linejoin="bevel" width="7.19999999999999" height="5.75999999999999"/><rect id="shape141" transform="matrix(0.99999988079072 0 0 0.99999988079072 154.079981632234 92.1599890136728)" fill="none" stroke="#ffffff" stroke-width="3.7368" stroke-linecap="square" stroke-linejoin="bevel" width="10.08" height="13.68"/><rect id="shape151" transform="matrix(0.99999988079072 0 0 0.99999988079072 146.159982576372 92.1599890136728)" fill="none" stroke="#ffffff" stroke-width="3.7368" stroke-linecap="square" stroke-linejoin="bevel" width="6.48000000000002" height="7.2"/><rect id="shape161" transform="matrix(0.99999988079072 0 0 0.99999988079072 142.559983005525 94.3199887561807)" fill="none" stroke="#ffffff" stroke-width="3.7368" stroke-linecap="square" stroke-linejoin="bevel" width="8.64000000000001" height="6.47999999999999"/><rect id="shape171" transform="matrix(0.99999988079072 0 0 0.99999988079072 147.59998240471 96.4799884986886)" fill="none" stroke="#ffffff" stroke-width="3.7368" stroke-linecap="square" stroke-linejoin="bevel" width="18" height="6.48"/><rect id="shape181" transform="matrix(0.99999988079072 0 0 0.99999988079072 164.879980344774 94.3199887561807)" fill="none" stroke="#ffffff" stroke-width="3.7368" stroke-linecap="square" stroke-linejoin="bevel" width="4.32000000000002" height="2.88"/><rect id="shape191" transform="matrix(0.99999988079072 0 0 0.99999988079072 161.279980773927 86.3999897003182)" fill="none" stroke="#ffffff" stroke-width="3.7368" stroke-linecap="square" stroke-linejoin="bevel" width="10.8" height="12.24"/><rect id="shape201" transform="matrix(0.99999988079072 0 0 0.99999988079072 172.079979486467 88.5599894428262)" fill="none" stroke="#ffffff" stroke-width="3.7368" stroke-linecap="square" stroke-linejoin="bevel" width="4.31999999999999" height="10.8"/><rect id="shape211" transform="matrix(0.99999988079072 0 0 0.99999988079072 173.519979314806 87.1199896144876)" fill="none" stroke="#ffffff" stroke-width="3.7368" stroke-linecap="square" stroke-linejoin="bevel" width="2.16" height="9.36"/><rect id="shape221" transform="matrix(0.99999988079072 0 0 0.99999988079072 173.519979314806 87.1199896144876)" fill="none" stroke="#ffffff" stroke-width="3.7368" stroke-linecap="square" stroke-linejoin="bevel" width="4.31999999999999" height="10.8"/><rect id="shape231" transform="matrix(0.99999988079072 0 0 0.99999988079072 123.119985322953 89.2799893569955)" fill="none" stroke="#ffffff" stroke-width="3.7368" stroke-linecap="square" stroke-linejoin="bevel" width="4.31999999999999" height="8.64"/><rect id="shape241" transform="matrix(0.99999988079072 0 0 0.99999988079072 136.799983692171 93.5999888420114)" fill="none" stroke="#ffffff" stroke-width="3.7368" stroke-linecap="square" stroke-linejoin="bevel" width="16.56" height="13.68"/><rect id="shape251" transform="matrix(0.99999988079072 0 0 0.99999988079072 143.279982919695 95.0399886703501)" fill="none" stroke="#ffffff" stroke-width="3.7368" stroke-linecap="square" stroke-linejoin="bevel" width="12.24" height="2.16"/><rect id="shape261" transform="matrix(0.99999988079072 0 0 0.99999988079072 154.079981632234 92.1599890136728)" fill="none" stroke="#ffffff" stroke-width="3.7368" stroke-linecap="square" stroke-linejoin="bevel" width="10.08" height="11.52"/><rect id="shape271" transform="matrix(0.99999988079072 0 0 0.99999988079072 161.999980688097 93.5999888420114)" fill="none" stroke="#ffffff" stroke-width="3.7368" stroke-linecap="square" stroke-linejoin="bevel" width="6.48000000000002" height="11.52"/><ellipse id="shape281" transform="matrix(0.99999988079072 0 0 0.99999988079072 171.359979572298 75.5999909877784)" rx="2.52" ry="4.68" cx="2.52" cy="4.68" fill="none" stroke="#ffffff" stroke-width="2.0232" stroke-linecap="square" stroke-linejoin="bevel"/><ellipse id="shape291" transform="matrix(0.99999988079072 0 0 0.99999988079072 128.879984636308 75.5999909877784)" rx="0.719999999999999" ry="4.68" cx="0.719999999999999" cy="4.68" fill="none" stroke="#ffffff" stroke-width="2.0232" stroke-linecap="square" stroke-linejoin="bevel"/><ellipse id="shape301" transform="matrix(0.99999988079072 0 0 0.99999988079072 144.719982748033 87.1199896144876)" rx="13.68" ry="8.64" cx="13.68" cy="8.64" fill="none" stroke="#ffffff" stroke-width="2.0232" stroke-linecap="square" stroke-linejoin="bevel"/><ellipse id="shape311" transform="matrix(0.99999988079072 0 0 0.99999988079072 161.999980688097 96.4799884986886)" rx="3.96000000000001" ry="2.88" cx="3.96000000000001" cy="2.88" fill="none" stroke="#ffffff" stroke-width="2.0232" stroke-linecap="square" stroke-linejoin="bevel"/><ellipse id="shape321" transform="matrix(0.99999988079072 0 0 0.99999988079072 172.799979400636 92.1599890136728)" rx="3.23999999999999" ry="1.8" cx="3.23999999999999" cy="1.8" fill="none" stroke="#ffffff" stroke-width="2.0232" stroke-linecap="square" stroke-linejoin="bevel"/><ellipse id="shape331" transform="matrix(0.99999988079072 0 0 0.99999988079072 175.679979057314 84.9599898719795)" rx="1.44" ry="2.52" cx="1.44" cy="2.52" fill="none" stroke="#ffffff" stroke-width="2.0232" stroke-linecap="square" stroke-linejoin="bevel"/><ellipse id="shape341" transform="matrix(0.99999988079072 0 0 0.99999988079072 174.959979143145 86.3999897003182)" rx="2.16" ry="1.44" cx="2.16" cy="1.44" fill="none" stroke="#ffffff" stroke-width="2.0232" stroke-linecap="square" stroke-linejoin="bevel"/><ellipse id="shape351" transform="matrix(0.99999988079072 0 0 0.99999988079072 177.119978885652 84.9599898719795)" rx="1.08" ry="2.16" cx="1.08" cy="2.16" fill="none" stroke="#ffffff" stroke-width="2.0232" stroke-linecap="square" stroke-linejoin="bevel"/><ellipse id="shape361" transform="matrix(0.99999988079072 0 0 0.99999988079072 141.839983091355 66.9599920177467)" rx="6.84" ry="12.6" cx="6.84" cy="12.6" fill="none" stroke="#ffffff" stroke-width="13.0752" stroke-linecap="square" stroke-linejoin="bevel"/><ellipse id="shape371" transform="matrix(0.99999988079072 0 0 0.99999988079072 132.479984207154 67.6799919319159)" rx="9.72" ry="12.24" cx="9.72" cy="12.24" fill="none" stroke="#ffffff" stroke-width="13.0752" stroke-linecap="square" stroke-linejoin="bevel"/><ellipse id="shape381" transform="matrix(0.99999988079072 0 0 0.99999988079072 131.039984378816 68.3999918460852)" rx="7.2" ry="15.48" cx="7.2" cy="15.48" fill="none" stroke="#ffffff" stroke-width="13.0752" stroke-linecap="square" stroke-linejoin="bevel"/><ellipse id="shape391" transform="matrix(0.99999988079072 0 0 0.99999988079072 133.199984121324 89.2799893569955)" rx="18.36" ry="6.48" cx="18.36" cy="6.48" fill="none" stroke="#ffffff" stroke-width="13.0752" stroke-linecap="square" stroke-linejoin="bevel"/><ellipse id="shape401" transform="matrix(0.99999988079072 0 0 0.99999988079072 161.999980688097 74.1599911594398)" rx="2.16" ry="6.12" cx="2.16" cy="6.12" fill="none" stroke="#ffffff" stroke-width="13.0752" stroke-linecap="square" stroke-linejoin="bevel"/><path id="shape01" transform="matrix(0.892148875320488 0 0 0.891549398914427 121.158322760202 95.0300723778945)" fill="#1a1a1a" fill-rule="evenodd" stroke="#1a1a1a" stroke-width="1" stroke-linecap="square" stroke-linejoin="bevel" d="M0 1.66045L14.388 92.7343C16.485 95.0474 19.0844 96.5011 22.186 97.0956C25.2877 97.6901 32.1408 97.8165 42.7455 97.4748C45.4485 97.1673 47.8285 96.5985 49.8857 95.7683C51.9428 94.938 53.9003 93.7644 55.7581 92.2475L65.6491 0C61.0086 2.27885 56.7508 3.68819 52.8757 4.22801C47.0631 5.03774 40.141 6.20108 35.2958 6.27795C32.0656 6.3292 27.5003 6.22158 21.6 5.95509C17.8206 5.52802 14.3801 4.96941 11.2784 4.27926C6.62591 3.24404 6.59003 3.27991 0 1.66045Z"/><path id="shape111" transform="matrix(0.892148875320488 0 0 0.891549398914427 138.614219935399 109.521880200599)" fill="none" stroke="#000000" stroke-opacity="0" stroke-width="0" stroke-linecap="square" stroke-linejoin="bevel" d="M0 73.2839C3.25315 76.0274 7.61063 77.3445 13.0724 77.2352C21.2651 77.0712 24.8053 76.6766 27.0658 75.7848C28.5727 75.1904 29.984 74.5549 31.2996 73.8784L20.5475 0L4.12624 0C4.18206 0.350849 2.80664 24.7788 0 73.2839Z"/><path id="shape211" transform="matrix(0.892148875320488 0 0 0.891549398914427 144.632219491666 128.980117557258)" fill="none" stroke="#000000" stroke-width="2.0232" stroke-linecap="square" stroke-linejoin="bevel" d="M0 9.86536L8.98412 23.3694L19.2438 0C18.8611 0.35874 12.4465 3.64719 0 9.86536Z"/><path id="shape011" transform="matrix(0.8921489107713 0 0 0.891549434341418 135.008732973474 122.199898781335)" fill="#1a1a1a" fill-rule="evenodd" stroke="#000000" stroke-opacity="0" stroke-width="0" stroke-linecap="square" stroke-linejoin="bevel" d="M4.39355 1.2553L39.542 0L29.4996 40.1696L10.8793 39.542L0 7.11337L6.69494 0C6.69494 0 5.92781 0.418434 4.39355 1.2553Z"/><path id="shape0111" transform="matrix(0.892148875320488 0 0 0.891549398914427 138.539528451544 109.521880200599)" fill="none" stroke="#ffffff" stroke-width="2.0232" stroke-linecap="square" stroke-linejoin="bevel" d="M0 72.9559L4.40133 0L20.703 0L31.5867 73.1865C25.8247 75.7626 20.5669 77.0199 15.8134 76.9584C8.68305 76.8662 1.10033 75.093 0 72.9559Z"/><path id="shape02" transform="matrix(0.892148875320488 0 0 0.891549398914427 127.978153063619 115.128955980489)" fill="#ffffff" fill-rule="evenodd" stroke="#ffffff" stroke-width="1" stroke-linecap="square" stroke-linejoin="bevel" d="M22.0186 69.3906L22.497 62.7334L5.92026 21.6679L4.0784 22.5238L1.45914 19.0696L4.28172 17.6449L0 6.14983L1.57874 5.63735L6.09966 16.5738L9.11362 15.6206L9.8671 20.1202L7.52292 20.9607L21.7674 57.1012L20.4638 0L28.3715 0.210119L31.2757 70.4002C26.3641 71.3227 23.2784 70.9861 22.0186 69.3906Z"/><path id="shape03" transform="matrix(0.892148875320488 0 0 0.891549398914427 120.528947464358 88.8300028340514)" fill="#1a1a1a" fill-rule="evenodd" stroke="#1a1a1a" stroke-width="2.0232" stroke-linecap="square" stroke-linejoin="bevel" d="M0.549976 1.9782C7.76592 4.38005 14.0769 5.79451 19.4829 6.22158C27.5918 6.86219 40.6164 6.71869 42.5659 6.52395C44.5154 6.3292 54.7054 4.96599 59.0469 3.97689C61.9413 3.31749 64.4529 1.99186 66.5818 0C67.132 2.69568 67.1838 4.09818 66.7373 4.20751C66.0675 4.37151 57.5041 7.81029 54.8609 8.02553C52.2177 8.24077 49.8137 9.28112 47.4456 9.47074C45.0775 9.66036 34.744 10.6597 30.9526 10.3932C27.1613 10.1267 21.4802 9.86536 19.6144 9.36824C17.7486 8.87113 0.753299 6.46757 0.310774 5.78597C-0.131751 5.10436 -0.143711 1.76808 0.549976 1.9782Z"/><path id="shape04" transform="matrix(0.892148875320488 0 0 0.891549398914427 121.019610009929 80.2739222044937)" fill="#1a1a1a" fill-rule="evenodd" stroke="#1a1a1a" stroke-width="2.0232" stroke-linecap="square" stroke-linejoin="bevel" d="M2.77475 0.989878C13.6904 3.60356 20.8026 4.91894 24.1116 4.93602C29.0751 4.96164 44.5156 5.43826 49.3594 4.19292C54.2033 2.94757 60.9129 0.954004 61.9295 0.0981528C62.9461 -0.757699 65.5893 4.23904 65.6372 5.17689C65.6691 5.80212 65.6491 6.40002 65.5774 6.97059C56.5993 9.98059 50.699 11.4668 47.8764 11.4292C43.6425 11.3728 31.8259 13.6944 21.887 12.6592C15.2611 11.969 7.96544 10.464 0 8.14418C1.35548 3.66164 2.2804 1.27687 2.77475 0.989878Z"/><path id="shape05" transform="matrix(0.892148875320488 0 0 0.891549398914427 122.338006436905 28.4378785442531)" fill="#a6a6a6" fill-rule="evenodd" stroke="#a6a6a6" stroke-width="2.0232" stroke-linecap="square" stroke-linejoin="bevel" d="M1.51226 55.6954C13.4982 59.1461 24.3186 60.494 33.9735 59.7389C43.6283 58.9838 52.6418 57.2243 61.0139 54.4603C62.4411 32.4781 58.881 16.9651 50.3335 7.92144C41.786 -1.12223 30.3082 -2.42224 15.9003 4.02142C6.34016 11.6985 1.24913 19.5446 0.627208 27.5599C-0.305682 39.5828 -0.341562 39.6289 1.51226 55.6954Z"/>
</svg>
